<?xml version="1.0" encoding="UTF-8" standalone="no"?>
<svg width="12px" height="7px" viewBox="0 0 12 7" version="1.1" xmlns="http://www.w3.org/2000/svg" xmlns:xlink="http://www.w3.org/1999/xlink">
    <!-- Generator: Sketch 39.1 (31720) - http://www.bohemiancoding.com/sketch -->
    <title>Combined Shape</title>
    <desc>Created with Sketch.</desc>
    <defs></defs>
    <g id="Students---Atomic" stroke="none" stroke-width="1" fill="none" fill-rule="evenodd">
        <g id="Atoms" transform="translate(-208.000000, -1998.000000)" fill="#002145">
            <g id="Lists" transform="translate(100.000000, 1337.000000)">
                <g id="anchored-linked" transform="translate(0.000000, 325.000000)">
                    <g id="li" transform="translate(24.000000, 330.000000)">
                        <path d="M93.5,9.5 C93.5,9.24407768 93.4023689,8.98815536 93.2071068,8.79289322 L88.2071068,3.79289322 C87.8165825,3.40236893 87.1834175,3.40236893 86.7928932,3.79289322 C86.4023689,4.18341751 86.4023689,4.81658249 86.7928932,5.20710678 L91.0857864,9.5 L86.7928932,13.7928932 C86.4023689,14.1834175 86.4023689,14.8165825 86.7928932,15.2071068 C87.1834175,15.5976311 87.8165825,15.5976311 88.2071068,15.2071068 L93.2071068,10.2071068 C93.4023689,10.0118446 93.5,9.75592232 93.5,9.5 Z" id="Combined-Shape" transform="translate(90.000000, 9.500000) rotate(-90.000000) translate(-90.000000, -9.500000) "></path>
                    </g>
                </g>
            </g>
        </g>
    </g>
</svg>