<?xml version="1.0" encoding="UTF-8" standalone="no"?>
<svg width="14px" height="14px" viewBox="0 0 14 14" version="1.1" xmlns="http://www.w3.org/2000/svg" xmlns:xlink="http://www.w3.org/1999/xlink">
    <!-- Generator: Sketch 39.1 (31720) - http://www.bohemiancoding.com/sketch -->
    <title>external-link-icon</title>
    <desc>Created with Sketch.</desc>
    <defs></defs>
    <g id="Students---Atomic" stroke="none" stroke-width="1" fill="none" fill-rule="evenodd">
        <g id="Atoms" transform="translate(-290.000000, -1042.000000)" fill="#1594A6">
            <g id="Links" transform="translate(98.000000, 806.000000)">
                <g id="External-link" transform="translate(0.000000, 148.000000)">
                    <g id="external-link-icon" transform="translate(192.000000, 88.000000)">
                        <path d="M12.8534661,7.69849643 C12.7618819,7.69849643 12.6867341,7.72783496 12.6282629,7.78678653 C12.5693113,7.84539495 12.5399728,7.92050845 12.5399728,8.01198975 L12.5399728,11.1469572 C12.5399728,11.5780448 12.3865889,11.9469897 12.0796496,12.2539976 C11.7727103,12.560937 11.4036282,12.7142865 10.9725406,12.7142865 L2.82143984,12.7142865 C2.39038653,12.7142865 2.02133874,12.560937 1.71433078,12.2539976 C1.40739145,11.947024 1.25393895,11.5780792 1.25393895,11.1469572 L1.25393895,2.99595945 C1.25393895,2.56490614 1.40735714,2.1959956 1.71433078,1.88902196 C2.02133874,1.582014 2.39038653,1.42859581 2.82143984,1.42859581 L6.138867,1.42859587 C6.23045124,1.42859587 6.30559905,1.39912008 6.36431042,1.34040871 C6.42302178,1.28162872 6.45236031,1.20658385 6.45236031,1.11506824 L6.45236031,0.487978663 C6.45236031,0.396634617 6.42302178,0.321452497 6.36431042,0.262775442 C6.30559905,0.203995445 6.23045124,0.174656918 6.138867,0.174656918 L2.82143984,0.174656863 C2.04429485,0.174656863 1.3797,0.450610589 0.827723922,1.00248373 C0.275953726,1.55432255 0,2.2189174 0,2.99606239 L0,11.1470945 C0,11.9242051 0.275953726,12.5889029 0.827758236,13.1405702 C1.37973432,13.6924776 2.04432917,13.9685686 2.82147415,13.9685686 L10.9725406,13.9685686 C11.7496512,13.9685686 12.4143147,13.6924776 12.9662222,13.1405702 C13.5181639,12.5889029 13.7941176,11.9242395 13.7941176,11.1470945 L13.7941176,8.01222995 C13.7941176,7.9206457 13.7647448,7.8454979 13.7057932,7.78678653 C13.6470132,7.72783496 13.5718654,7.69849643 13.4805214,7.69849643 L12.8534661,7.69849643 Z" id="Shape"></path>
                        <path d="M13.0968413,0.274509804 L8.08092949,0.274509804 C7.91114517,0.274509804 7.76411086,0.336514706 7.64010106,0.460627451 C7.51598831,0.584671569 7.45384615,0.731637255 7.45384615,0.901455882 C7.45384615,1.07127451 7.51598831,1.21827451 7.64010106,1.34238725 L9.36426282,3.06658333 L4.76466667,7.51219786 C4.69926471,7.57749688 4.66666667,7.65264394 4.66666667,7.73739884 C4.66666667,7.82246257 4.69936765,7.89757531 4.76466667,7.96287433 L5.8815098,9.07958022 C5.94680882,9.14487924 6.02195588,9.17744296 6.10684804,9.17744296 C6.1917402,9.17744296 6.26692157,9.14491355 6.33218627,9.07958022 L10.9318167,4.63406863 L12.6561158,6.35826471 C12.7801256,6.48237745 12.9271256,6.54445098 13.0969442,6.54445098 C13.2667628,6.54445098 13.4137628,6.48237745 13.5379099,6.35826471 C13.6620226,6.23418627 13.7240275,6.0872549 13.7240275,5.91743627 L13.7240275,0.901455882 C13.7239932,0.731534314 13.6617824,0.584671569 13.5377726,0.460627451 C13.4136599,0.336514706 13.2665226,0.274509804 13.0968413,0.274509804 Z" id="Shape"></path>
                    </g>
                </g>
            </g>
        </g>
    </g>
</svg>