<?xml version="1.0" encoding="UTF-8" standalone="no"?>
<svg width="24px" height="24px" viewBox="0 0 24 24" version="1.1" xmlns="http://www.w3.org/2000/svg" xmlns:xlink="http://www.w3.org/1999/xlink">
    <!-- Generator: Sketch 39.1 (31720) - http://www.bohemiancoding.com/sketch -->
    <title>theme list li</title>
    <desc>Created with Sketch.</desc>
    <defs>
        <circle id="path-1" cx="12" cy="12" r="12"></circle>
        <mask id="mask-2" maskContentUnits="userSpaceOnUse" maskUnits="objectBoundingBox" x="0" y="0" width="24" height="24" fill="white">
            <use xlink:href="#path-1"></use>
        </mask>
    </defs>
    <g id="Students---Atomic" stroke="none" stroke-width="1" fill="none" fill-rule="evenodd">
        <g id="Atoms" transform="translate(-586.000000, -1671.000000)">
            <g id="Lists" transform="translate(100.000000, 1337.000000)">
                <g id="Theme-Lists" transform="translate(486.000000, 295.000000)">
                    <g id="theme-list-li" transform="translate(0.000000, 39.000000)">
                        <use id="Oval-2" stroke="#58A229" mask="url(#mask-2)" stroke-width="4" xlink:href="#path-1"></use>
                        <path d="M16,12 C16,11.7440777 15.9023689,11.4881554 15.7071068,11.2928932 L10.7071068,6.29289322 C10.3165825,5.90236893 9.68341751,5.90236893 9.29289322,6.29289322 C8.90236893,6.68341751 8.90236893,7.31658249 9.29289322,7.70710678 L13.5857864,12 L9.29289322,16.2928932 C8.90236893,16.6834175 8.90236893,17.3165825 9.29289322,17.7071068 C9.68341751,18.0976311 10.3165825,18.0976311 10.7071068,17.7071068 L15.7071068,12.7071068 C15.9023689,12.5118446 16,12.2559223 16,12 Z" id="Combined-Shape" fill="#58A229"></path>
                    </g>
                </g>
            </g>
        </g>
    </g>
</svg>